<svg width="1440" height="900" viewBox="0 0 1440 900" fill="none" xmlns="http://www.w3.org/2000/svg">
<g clip-path="url(#clip0_3_71)">
<rect width="1440" height="900" fill="white"/>
<rect width="400" height="900" fill="#2F80ED"/>
<path d="M105.194 862.624H109.226V865H102.116V852.364H105.194V862.624ZM115.266 865.144C114.282 865.144 113.394 864.934 112.602 864.514C111.822 864.094 111.204 863.494 110.748 862.714C110.304 861.934 110.082 861.022 110.082 859.978C110.082 858.946 110.31 858.04 110.766 857.26C111.222 856.468 111.846 855.862 112.638 855.442C113.43 855.022 114.318 854.812 115.302 854.812C116.286 854.812 117.174 855.022 117.966 855.442C118.758 855.862 119.382 856.468 119.838 857.26C120.294 858.04 120.522 858.946 120.522 859.978C120.522 861.01 120.288 861.922 119.82 862.714C119.364 863.494 118.734 864.094 117.93 864.514C117.138 864.934 116.25 865.144 115.266 865.144ZM115.266 862.48C115.854 862.48 116.352 862.264 116.76 861.832C117.18 861.4 117.39 860.782 117.39 859.978C117.39 859.174 117.186 858.556 116.778 858.124C116.382 857.692 115.89 857.476 115.302 857.476C114.702 857.476 114.204 857.692 113.808 858.124C113.412 858.544 113.214 859.162 113.214 859.978C113.214 860.782 113.406 861.4 113.79 861.832C114.186 862.264 114.678 862.48 115.266 862.48ZM125.971 854.812C126.679 854.812 127.297 854.956 127.825 855.244C128.365 855.532 128.779 855.91 129.067 856.378V854.956H132.145V864.982C132.145 865.906 131.959 866.74 131.587 867.484C131.227 868.24 130.669 868.84 129.913 869.284C129.169 869.728 128.239 869.95 127.123 869.95C125.635 869.95 124.429 869.596 123.505 868.888C122.581 868.192 122.053 867.244 121.921 866.044H124.963C125.059 866.428 125.287 866.728 125.647 866.944C126.007 867.172 126.451 867.286 126.979 867.286C127.615 867.286 128.119 867.1 128.491 866.728C128.875 866.368 129.067 865.786 129.067 864.982V863.56C128.767 864.028 128.353 864.412 127.825 864.712C127.297 865 126.679 865.144 125.971 865.144C125.143 865.144 124.393 864.934 123.721 864.514C123.049 864.082 122.515 863.476 122.119 862.696C121.735 861.904 121.543 860.992 121.543 859.96C121.543 858.928 121.735 858.022 122.119 857.242C122.515 856.462 123.049 855.862 123.721 855.442C124.393 855.022 125.143 854.812 125.971 854.812ZM129.067 859.978C129.067 859.21 128.851 858.604 128.419 858.16C127.999 857.716 127.483 857.494 126.871 857.494C126.259 857.494 125.737 857.716 125.305 858.16C124.885 858.592 124.675 859.192 124.675 859.96C124.675 860.728 124.885 861.34 125.305 861.796C125.737 862.24 126.259 862.462 126.871 862.462C127.483 862.462 127.999 862.24 128.419 861.796C128.851 861.352 129.067 860.746 129.067 859.978ZM138.944 865.144C137.96 865.144 137.072 864.934 136.28 864.514C135.5 864.094 134.882 863.494 134.426 862.714C133.982 861.934 133.76 861.022 133.76 859.978C133.76 858.946 133.988 858.04 134.444 857.26C134.9 856.468 135.524 855.862 136.316 855.442C137.108 855.022 137.996 854.812 138.98 854.812C139.964 854.812 140.852 855.022 141.644 855.442C142.436 855.862 143.06 856.468 143.516 857.26C143.972 858.04 144.2 858.946 144.2 859.978C144.2 861.01 143.966 861.922 143.498 862.714C143.042 863.494 142.412 864.094 141.608 864.514C140.816 864.934 139.928 865.144 138.944 865.144ZM138.944 862.48C139.532 862.48 140.03 862.264 140.438 861.832C140.858 861.4 141.068 860.782 141.068 859.978C141.068 859.174 140.864 858.556 140.456 858.124C140.06 857.692 139.568 857.476 138.98 857.476C138.38 857.476 137.882 857.692 137.486 858.124C137.09 858.544 136.892 859.162 136.892 859.978C136.892 860.782 137.084 861.4 137.468 861.832C137.864 862.264 138.356 862.48 138.944 862.48ZM155.751 854.956V865H152.673V863.632C152.361 864.076 151.935 864.436 151.395 864.712C150.867 864.976 150.279 865.108 149.631 865.108C148.863 865.108 148.185 864.94 147.597 864.604C147.009 864.256 146.553 863.758 146.229 863.11C145.905 862.462 145.743 861.7 145.743 860.824V854.956H148.803V860.41C148.803 861.082 148.977 861.604 149.325 861.976C149.673 862.348 150.141 862.534 150.729 862.534C151.329 862.534 151.803 862.348 152.151 861.976C152.499 861.604 152.673 861.082 152.673 860.41V854.956H155.751ZM163.56 862.39V865H161.994C160.878 865 160.008 864.73 159.384 864.19C158.76 863.638 158.448 862.744 158.448 861.508V857.512H157.224V854.956H158.448V852.508H161.526V854.956H163.542V857.512H161.526V861.544C161.526 861.844 161.598 862.06 161.742 862.192C161.886 862.324 162.126 862.39 162.462 862.39H163.56Z" fill="white"/>
<g clip-path="url(#clip1_3_71)">
<path d="M76 848H74V858H76V848ZM80.83 850.17L79.41 851.59C80.99 852.86 82 854.81 82 857C82 860.87 78.87 864 75 864C71.13 864 68 860.87 68 857C68 854.81 69.01 852.86 70.58 851.58L69.17 850.17C67.23 851.82 66 854.26 66 857C66 861.97 70.03 866 75 866C79.97 866 84 861.97 84 857C84 854.26 82.77 851.82 80.83 850.17Z" fill="white"/>
</g>
<path d="M105.584 90.168C104.352 90.168 103.248 89.968 102.272 89.568C101.296 89.168 100.512 88.576 99.92 87.792C99.344 87.008 99.04 86.064 99.008 84.96H103.376C103.44 85.584 103.656 86.064 104.024 86.4C104.392 86.72 104.872 86.88 105.464 86.88C106.072 86.88 106.552 86.744 106.904 86.472C107.256 86.184 107.432 85.792 107.432 85.296C107.432 84.88 107.288 84.536 107 84.264C106.728 83.992 106.384 83.768 105.968 83.592C105.568 83.416 104.992 83.216 104.24 82.992C103.152 82.656 102.264 82.32 101.576 81.984C100.888 81.648 100.296 81.152 99.8 80.496C99.304 79.84 99.056 78.984 99.056 77.928C99.056 76.36 99.624 75.136 100.76 74.256C101.896 73.36 103.376 72.912 105.2 72.912C107.056 72.912 108.552 73.36 109.688 74.256C110.824 75.136 111.432 76.368 111.512 77.952H107.072C107.04 77.408 106.84 76.984 106.472 76.68C106.104 76.36 105.632 76.2 105.056 76.2C104.56 76.2 104.16 76.336 103.856 76.608C103.552 76.864 103.4 77.24 103.4 77.736C103.4 78.28 103.656 78.704 104.168 79.008C104.68 79.312 105.48 79.64 106.568 79.992C107.656 80.36 108.536 80.712 109.208 81.048C109.896 81.384 110.488 81.872 110.984 82.512C111.48 83.152 111.728 83.976 111.728 84.984C111.728 85.944 111.48 86.816 110.984 87.6C110.504 88.384 109.8 89.008 108.872 89.472C107.944 89.936 106.848 90.168 105.584 90.168ZM116.318 75.216C115.598 75.216 115.006 75.008 114.542 74.592C114.094 74.16 113.87 73.632 113.87 73.008C113.87 72.368 114.094 71.84 114.542 71.424C115.006 70.992 115.598 70.776 116.318 70.776C117.022 70.776 117.598 70.992 118.046 71.424C118.51 71.84 118.742 72.368 118.742 73.008C118.742 73.632 118.51 74.16 118.046 74.592C117.598 75.008 117.022 75.216 116.318 75.216ZM118.358 76.608V90H114.254V76.608H118.358ZM138.42 76.464C140.084 76.464 141.404 76.968 142.38 77.976C143.372 78.984 143.868 80.384 143.868 82.176V90H139.788V82.728C139.788 81.864 139.556 81.2 139.092 80.736C138.644 80.256 138.02 80.016 137.22 80.016C136.42 80.016 135.788 80.256 135.324 80.736C134.876 81.2 134.652 81.864 134.652 82.728V90H130.572V82.728C130.572 81.864 130.34 81.2 129.876 80.736C129.428 80.256 128.804 80.016 128.004 80.016C127.204 80.016 126.572 80.256 126.108 80.736C125.66 81.2 125.436 81.864 125.436 82.728V90H121.332V76.608H125.436V78.288C125.852 77.728 126.396 77.288 127.068 76.968C127.74 76.632 128.5 76.464 129.348 76.464C130.356 76.464 131.252 76.68 132.036 77.112C132.836 77.544 133.46 78.16 133.908 78.96C134.372 78.224 135.004 77.624 135.804 77.16C136.604 76.696 137.476 76.464 138.42 76.464ZM150.842 78.504C151.242 77.88 151.794 77.376 152.498 76.992C153.202 76.608 154.026 76.416 154.97 76.416C156.074 76.416 157.074 76.696 157.97 77.256C158.866 77.816 159.57 78.616 160.082 79.656C160.61 80.696 160.874 81.904 160.874 83.28C160.874 84.656 160.61 85.872 160.082 86.928C159.57 87.968 158.866 88.776 157.97 89.352C157.074 89.912 156.074 90.192 154.97 90.192C154.042 90.192 153.218 90 152.498 89.616C151.794 89.232 151.242 88.736 150.842 88.128V96.384H146.738V76.608H150.842V78.504ZM156.698 83.28C156.698 82.256 156.41 81.456 155.834 80.88C155.274 80.288 154.578 79.992 153.746 79.992C152.93 79.992 152.234 80.288 151.658 80.88C151.098 81.472 150.818 82.28 150.818 83.304C150.818 84.328 151.098 85.136 151.658 85.728C152.234 86.32 152.93 86.616 153.746 86.616C154.562 86.616 155.258 86.32 155.834 85.728C156.41 85.12 156.698 84.304 156.698 83.28ZM167.131 72.24V90H163.027V72.24H167.131ZM182.729 83.088C182.729 83.472 182.705 83.872 182.657 84.288H173.369C173.433 85.12 173.697 85.76 174.161 86.208C174.641 86.64 175.225 86.856 175.913 86.856C176.937 86.856 177.649 86.424 178.049 85.56H182.417C182.193 86.44 181.785 87.232 181.193 87.936C180.617 88.64 179.889 89.192 179.009 89.592C178.129 89.992 177.145 90.192 176.057 90.192C174.745 90.192 173.577 89.912 172.553 89.352C171.529 88.792 170.729 87.992 170.153 86.952C169.577 85.912 169.289 84.696 169.289 83.304C169.289 81.912 169.569 80.696 170.129 79.656C170.705 78.616 171.505 77.816 172.529 77.256C173.553 76.696 174.729 76.416 176.057 76.416C177.353 76.416 178.505 76.688 179.513 77.232C180.521 77.776 181.305 78.552 181.865 79.56C182.441 80.568 182.729 81.744 182.729 83.088ZM178.529 82.008C178.529 81.304 178.289 80.744 177.809 80.328C177.329 79.912 176.729 79.704 176.009 79.704C175.321 79.704 174.737 79.904 174.257 80.304C173.793 80.704 173.505 81.272 173.393 82.008H178.529ZM200.468 87.024H194.18L193.172 90H188.876L194.972 73.152H199.724L205.82 90H201.476L200.468 87.024ZM199.412 83.856L197.324 77.688L195.26 83.856H199.412ZM215.836 76.464C217.404 76.464 218.652 76.976 219.58 78C220.524 79.008 220.996 80.4 220.996 82.176V90H216.916V82.728C216.916 81.832 216.684 81.136 216.22 80.64C215.756 80.144 215.132 79.896 214.348 79.896C213.564 79.896 212.94 80.144 212.476 80.64C212.012 81.136 211.78 81.832 211.78 82.728V90H207.676V76.608H211.78V78.384C212.196 77.792 212.756 77.328 213.46 76.992C214.164 76.64 214.956 76.464 215.836 76.464ZM223.031 83.28C223.031 81.904 223.287 80.696 223.799 79.656C224.327 78.616 225.039 77.816 225.935 77.256C226.831 76.696 227.831 76.416 228.935 76.416C229.879 76.416 230.703 76.608 231.407 76.992C232.127 77.376 232.679 77.88 233.063 78.504V76.608H237.167V90H233.063V88.104C232.663 88.728 232.103 89.232 231.383 89.616C230.679 90 229.855 90.192 228.911 90.192C227.823 90.192 226.831 89.912 225.935 89.352C225.039 88.776 224.327 87.968 223.799 86.928C223.287 85.872 223.031 84.656 223.031 83.28ZM233.063 83.304C233.063 82.28 232.775 81.472 232.199 80.88C231.639 80.288 230.951 79.992 230.135 79.992C229.319 79.992 228.623 80.288 228.047 80.88C227.487 81.456 227.207 82.256 227.207 83.28C227.207 84.304 227.487 85.12 228.047 85.728C228.623 86.32 229.319 86.616 230.135 86.616C230.951 86.616 231.639 86.32 232.199 85.728C232.775 85.136 233.063 84.328 233.063 83.304ZM244.24 72.24V90H240.136V72.24H244.24ZM260.895 76.608L252.495 96.36H248.079L251.151 89.544L245.703 76.608H250.287L253.383 84.984L256.455 76.608H260.895ZM269.843 86.52V90H267.755C266.267 90 265.107 89.64 264.275 88.92C263.443 88.184 263.027 86.992 263.027 85.344V80.016H261.395V76.608H263.027V73.344H267.131V76.608H269.819V80.016H267.131V85.392C267.131 85.792 267.227 86.08 267.419 86.256C267.611 86.432 267.931 86.52 268.379 86.52H269.843ZM274.193 75.216C273.473 75.216 272.881 75.008 272.417 74.592C271.969 74.16 271.745 73.632 271.745 73.008C271.745 72.368 271.969 71.84 272.417 71.424C272.881 70.992 273.473 70.776 274.193 70.776C274.897 70.776 275.473 70.992 275.921 71.424C276.385 71.84 276.617 72.368 276.617 73.008C276.617 73.632 276.385 74.16 275.921 74.592C275.473 75.008 274.897 75.216 274.193 75.216ZM276.233 76.608V90H272.129V76.608H276.233ZM278.391 83.304C278.391 81.912 278.671 80.696 279.231 79.656C279.807 78.616 280.599 77.816 281.607 77.256C282.631 76.696 283.799 76.416 285.111 76.416C286.791 76.416 288.191 76.856 289.311 77.736C290.447 78.616 291.191 79.856 291.543 81.456H287.175C286.807 80.432 286.095 79.92 285.039 79.92C284.287 79.92 283.687 80.216 283.239 80.808C282.791 81.384 282.567 82.216 282.567 83.304C282.567 84.392 282.791 85.232 283.239 85.824C283.687 86.4 284.287 86.688 285.039 86.688C286.095 86.688 286.807 86.176 287.175 85.152H291.543C291.191 86.72 290.447 87.952 289.311 88.848C288.175 89.744 286.775 90.192 285.111 90.192C283.799 90.192 282.631 89.912 281.607 89.352C280.599 88.792 279.807 87.992 279.231 86.952C278.671 85.912 278.391 84.696 278.391 83.304ZM299.186 90.192C298.018 90.192 296.978 89.992 296.066 89.592C295.154 89.192 294.434 88.648 293.906 87.96C293.378 87.256 293.082 86.472 293.018 85.608H297.074C297.122 86.072 297.338 86.448 297.722 86.736C298.106 87.024 298.578 87.168 299.138 87.168C299.65 87.168 300.042 87.072 300.314 86.88C300.602 86.672 300.746 86.408 300.746 86.088C300.746 85.704 300.546 85.424 300.146 85.248C299.746 85.056 299.098 84.848 298.202 84.624C297.242 84.4 296.442 84.168 295.802 83.928C295.162 83.672 294.61 83.28 294.146 82.752C293.682 82.208 293.45 81.48 293.45 80.568C293.45 79.8 293.658 79.104 294.074 78.48C294.506 77.84 295.13 77.336 295.946 76.968C296.778 76.6 297.762 76.416 298.898 76.416C300.578 76.416 301.898 76.832 302.858 77.664C303.834 78.496 304.394 79.6 304.538 80.976H300.746C300.682 80.512 300.474 80.144 300.122 79.872C299.786 79.6 299.338 79.464 298.778 79.464C298.298 79.464 297.93 79.56 297.674 79.752C297.418 79.928 297.29 80.176 297.29 80.496C297.29 80.88 297.49 81.168 297.89 81.36C298.306 81.552 298.946 81.744 299.81 81.936C300.802 82.192 301.61 82.448 302.234 82.704C302.858 82.944 303.402 83.344 303.866 83.904C304.346 84.448 304.594 85.184 304.61 86.112C304.61 86.896 304.386 87.6 303.938 88.224C303.506 88.832 302.874 89.312 302.042 89.664C301.226 90.016 300.274 90.192 299.186 90.192Z" fill="white"/>
<g clip-path="url(#clip2_3_71)">
<path d="M49.5417 93.2758L59.0417 83.76L65.375 90.0933L78.8334 74.9567L76.6009 72.7242L65.375 85.3433L59.0417 79.01L47.1667 90.9008L49.5417 93.2758Z" fill="white"/>
</g>
<path d="M106.85 264.364C108.182 264.364 109.346 264.628 110.342 265.156C111.338 265.684 112.106 266.428 112.646 267.388C113.198 268.336 113.474 269.434 113.474 270.682C113.474 271.918 113.198 273.016 112.646 273.976C112.106 274.936 111.332 275.68 110.324 276.208C109.328 276.736 108.17 277 106.85 277H102.116V264.364H106.85ZM106.652 274.336C107.816 274.336 108.722 274.018 109.37 273.382C110.018 272.746 110.342 271.846 110.342 270.682C110.342 269.518 110.018 268.612 109.37 267.964C108.722 267.316 107.816 266.992 106.652 266.992H105.194V274.336H106.652ZM114.582 271.96C114.582 270.928 114.774 270.022 115.158 269.242C115.554 268.462 116.088 267.862 116.76 267.442C117.432 267.022 118.182 266.812 119.01 266.812C119.718 266.812 120.336 266.956 120.864 267.244C121.404 267.532 121.818 267.91 122.106 268.378V266.956H125.184V277H122.106V275.578C121.806 276.046 121.386 276.424 120.846 276.712C120.318 277 119.7 277.144 118.992 277.144C118.176 277.144 117.432 276.934 116.76 276.514C116.088 276.082 115.554 275.476 115.158 274.696C114.774 273.904 114.582 272.992 114.582 271.96ZM122.106 271.978C122.106 271.21 121.89 270.604 121.458 270.16C121.038 269.716 120.522 269.494 119.91 269.494C119.298 269.494 118.776 269.716 118.344 270.16C117.924 270.592 117.714 271.192 117.714 271.96C117.714 272.728 117.924 273.34 118.344 273.796C118.776 274.24 119.298 274.462 119.91 274.462C120.522 274.462 121.038 274.24 121.458 273.796C121.89 273.352 122.106 272.746 122.106 271.978ZM131.497 277.144C130.621 277.144 129.841 276.994 129.157 276.694C128.473 276.394 127.933 275.986 127.537 275.47C127.141 274.942 126.919 274.354 126.871 273.706H129.913C129.949 274.054 130.111 274.336 130.399 274.552C130.687 274.768 131.041 274.876 131.461 274.876C131.845 274.876 132.139 274.804 132.343 274.66C132.559 274.504 132.667 274.306 132.667 274.066C132.667 273.778 132.517 273.568 132.217 273.436C131.917 273.292 131.431 273.136 130.759 272.968C130.039 272.8 129.439 272.626 128.959 272.446C128.479 272.254 128.065 271.96 127.717 271.564C127.369 271.156 127.195 270.61 127.195 269.926C127.195 269.35 127.351 268.828 127.663 268.36C127.987 267.88 128.455 267.502 129.067 267.226C129.691 266.95 130.429 266.812 131.281 266.812C132.541 266.812 133.531 267.124 134.251 267.748C134.983 268.372 135.403 269.2 135.511 270.232H132.667C132.619 269.884 132.463 269.608 132.199 269.404C131.947 269.2 131.611 269.098 131.191 269.098C130.831 269.098 130.555 269.17 130.363 269.314C130.171 269.446 130.075 269.632 130.075 269.872C130.075 270.16 130.225 270.376 130.525 270.52C130.837 270.664 131.317 270.808 131.965 270.952C132.709 271.144 133.315 271.336 133.783 271.528C134.251 271.708 134.659 272.008 135.007 272.428C135.367 272.836 135.553 273.388 135.565 274.084C135.565 274.672 135.397 275.2 135.061 275.668C134.737 276.124 134.263 276.484 133.639 276.748C133.027 277.012 132.313 277.144 131.497 277.144ZM143.622 266.848C144.774 266.848 145.698 267.232 146.394 268C147.09 268.756 147.438 269.8 147.438 271.132V277H144.378V271.546C144.378 270.874 144.204 270.352 143.856 269.98C143.508 269.608 143.04 269.422 142.452 269.422C141.864 269.422 141.396 269.608 141.048 269.98C140.7 270.352 140.526 270.874 140.526 271.546V277H137.448V263.68H140.526V268.306C140.838 267.862 141.264 267.508 141.804 267.244C142.344 266.98 142.95 266.848 143.622 266.848ZM152.655 268.378C152.943 267.91 153.357 267.532 153.897 267.244C154.437 266.956 155.055 266.812 155.751 266.812C156.579 266.812 157.329 267.022 158.001 267.442C158.673 267.862 159.201 268.462 159.585 269.242C159.981 270.022 160.179 270.928 160.179 271.96C160.179 272.992 159.981 273.904 159.585 274.696C159.201 275.476 158.673 276.082 158.001 276.514C157.329 276.934 156.579 277.144 155.751 277.144C155.043 277.144 154.425 277.006 153.897 276.73C153.369 276.442 152.955 276.064 152.655 275.596V277H149.577V263.68H152.655V268.378ZM157.047 271.96C157.047 271.192 156.831 270.592 156.399 270.16C155.979 269.716 155.457 269.494 154.833 269.494C154.221 269.494 153.699 269.716 153.267 270.16C152.847 270.604 152.637 271.21 152.637 271.978C152.637 272.746 152.847 273.352 153.267 273.796C153.699 274.24 154.221 274.462 154.833 274.462C155.445 274.462 155.967 274.24 156.399 273.796C156.831 273.34 157.047 272.728 157.047 271.96ZM166.366 277.144C165.382 277.144 164.494 276.934 163.702 276.514C162.922 276.094 162.304 275.494 161.848 274.714C161.404 273.934 161.182 273.022 161.182 271.978C161.182 270.946 161.41 270.04 161.866 269.26C162.322 268.468 162.946 267.862 163.738 267.442C164.53 267.022 165.418 266.812 166.402 266.812C167.386 266.812 168.274 267.022 169.066 267.442C169.858 267.862 170.482 268.468 170.938 269.26C171.394 270.04 171.622 270.946 171.622 271.978C171.622 273.01 171.388 273.922 170.92 274.714C170.464 275.494 169.834 276.094 169.03 276.514C168.238 276.934 167.35 277.144 166.366 277.144ZM166.366 274.48C166.954 274.48 167.452 274.264 167.86 273.832C168.28 273.4 168.49 272.782 168.49 271.978C168.49 271.174 168.286 270.556 167.878 270.124C167.482 269.692 166.99 269.476 166.402 269.476C165.802 269.476 165.304 269.692 164.908 270.124C164.512 270.544 164.314 271.162 164.314 271.978C164.314 272.782 164.506 273.4 164.89 273.832C165.286 274.264 165.778 274.48 166.366 274.48ZM172.643 271.96C172.643 270.928 172.835 270.022 173.219 269.242C173.615 268.462 174.149 267.862 174.821 267.442C175.493 267.022 176.243 266.812 177.071 266.812C177.779 266.812 178.397 266.956 178.925 267.244C179.465 267.532 179.879 267.91 180.167 268.378V266.956H183.245V277H180.167V275.578C179.867 276.046 179.447 276.424 178.907 276.712C178.379 277 177.761 277.144 177.053 277.144C176.237 277.144 175.493 276.934 174.821 276.514C174.149 276.082 173.615 275.476 173.219 274.696C172.835 273.904 172.643 272.992 172.643 271.96ZM180.167 271.978C180.167 271.21 179.951 270.604 179.519 270.16C179.099 269.716 178.583 269.494 177.971 269.494C177.359 269.494 176.837 269.716 176.405 270.16C175.985 270.592 175.775 271.192 175.775 271.96C175.775 272.728 175.985 273.34 176.405 273.796C176.837 274.24 177.359 274.462 177.971 274.462C178.583 274.462 179.099 274.24 179.519 273.796C179.951 273.352 180.167 272.746 180.167 271.978ZM188.549 268.63C188.909 268.078 189.359 267.646 189.899 267.334C190.439 267.01 191.039 266.848 191.699 266.848V270.106H190.853C190.085 270.106 189.509 270.274 189.125 270.61C188.741 270.934 188.549 271.51 188.549 272.338V277H185.471V266.956H188.549V268.63ZM192.559 271.96C192.559 270.928 192.751 270.022 193.135 269.242C193.531 268.462 194.065 267.862 194.737 267.442C195.409 267.022 196.159 266.812 196.987 266.812C197.647 266.812 198.247 266.95 198.787 267.226C199.339 267.502 199.771 267.874 200.083 268.342V263.68H203.161V277H200.083V275.56C199.795 276.04 199.381 276.424 198.841 276.712C198.313 277 197.695 277.144 196.987 277.144C196.159 277.144 195.409 276.934 194.737 276.514C194.065 276.082 193.531 275.476 193.135 274.696C192.751 273.904 192.559 272.992 192.559 271.96ZM200.083 271.978C200.083 271.21 199.867 270.604 199.435 270.16C199.015 269.716 198.499 269.494 197.887 269.494C197.275 269.494 196.753 269.716 196.321 270.16C195.901 270.592 195.691 271.192 195.691 271.96C195.691 272.728 195.901 273.34 196.321 273.796C196.753 274.24 197.275 274.462 197.887 274.462C198.499 274.462 199.015 274.24 199.435 273.796C199.867 273.352 200.083 272.746 200.083 271.978Z" fill="white"/>
<g clip-path="url(#clip3_3_71)">
<path d="M70 270H78V260H70V270ZM70 278H78V272H70V278ZM80 278H88V268H80V278ZM80 260V266H88V260H80Z" fill="white"/>
</g>
<path d="M105.688 343.126C104.764 343.126 103.936 342.976 103.204 342.676C102.472 342.376 101.884 341.932 101.44 341.344C101.008 340.756 100.78 340.048 100.756 339.22H104.032C104.08 339.688 104.242 340.048 104.518 340.3C104.794 340.54 105.154 340.66 105.598 340.66C106.054 340.66 106.414 340.558 106.678 340.354C106.942 340.138 107.074 339.844 107.074 339.472C107.074 339.16 106.966 338.902 106.75 338.698C106.546 338.494 106.288 338.326 105.976 338.194C105.676 338.062 105.244 337.912 104.68 337.744C103.864 337.492 103.198 337.24 102.682 336.988C102.166 336.736 101.722 336.364 101.35 335.872C100.978 335.38 100.792 334.738 100.792 333.946C100.792 332.77 101.218 331.852 102.07 331.192C102.922 330.52 104.032 330.184 105.4 330.184C106.792 330.184 107.914 330.52 108.766 331.192C109.618 331.852 110.074 332.776 110.134 333.964H106.804C106.78 333.556 106.63 333.238 106.354 333.01C106.078 332.77 105.724 332.65 105.292 332.65C104.92 332.65 104.62 332.752 104.392 332.956C104.164 333.148 104.05 333.43 104.05 333.802C104.05 334.21 104.242 334.528 104.626 334.756C105.01 334.984 105.61 335.23 106.426 335.494C107.242 335.77 107.902 336.034 108.406 336.286C108.922 336.538 109.366 336.904 109.738 337.384C110.11 337.864 110.296 338.482 110.296 339.238C110.296 339.958 110.11 340.612 109.738 341.2C109.378 341.788 108.85 342.256 108.154 342.604C107.458 342.952 106.636 343.126 105.688 343.126ZM121.658 337.816C121.658 338.104 121.64 338.404 121.604 338.716H114.638C114.686 339.34 114.884 339.82 115.232 340.156C115.592 340.48 116.03 340.642 116.546 340.642C117.314 340.642 117.848 340.318 118.148 339.67H121.424C121.256 340.33 120.95 340.924 120.506 341.452C120.074 341.98 119.528 342.394 118.868 342.694C118.208 342.994 117.47 343.144 116.654 343.144C115.67 343.144 114.794 342.934 114.026 342.514C113.258 342.094 112.658 341.494 112.226 340.714C111.794 339.934 111.578 339.022 111.578 337.978C111.578 336.934 111.788 336.022 112.208 335.242C112.64 334.462 113.24 333.862 114.008 333.442C114.776 333.022 115.658 332.812 116.654 332.812C117.626 332.812 118.49 333.016 119.246 333.424C120.002 333.832 120.59 334.414 121.01 335.17C121.442 335.926 121.658 336.808 121.658 337.816ZM118.508 337.006C118.508 336.478 118.328 336.058 117.968 335.746C117.608 335.434 117.158 335.278 116.618 335.278C116.102 335.278 115.664 335.428 115.304 335.728C114.956 336.028 114.74 336.454 114.656 337.006H118.508ZM128.88 340.39V343H127.314C126.198 343 125.328 342.73 124.704 342.19C124.08 341.638 123.768 340.744 123.768 339.508V335.512H122.544V332.956H123.768V330.508H126.846V332.956H128.862V335.512H126.846V339.544C126.846 339.844 126.918 340.06 127.062 340.192C127.206 340.324 127.446 340.39 127.782 340.39H128.88ZM136.193 340.39V343H134.627C133.511 343 132.641 342.73 132.017 342.19C131.393 341.638 131.081 340.744 131.081 339.508V335.512H129.857V332.956H131.081V330.508H134.159V332.956H136.175V335.512H134.159V339.544C134.159 339.844 134.231 340.06 134.375 340.192C134.519 340.324 134.759 340.39 135.095 340.39H136.193ZM139.455 331.912C138.915 331.912 138.471 331.756 138.123 331.444C137.787 331.12 137.619 330.724 137.619 330.256C137.619 329.776 137.787 329.38 138.123 329.068C138.471 328.744 138.915 328.582 139.455 328.582C139.983 328.582 140.415 328.744 140.751 329.068C141.099 329.38 141.273 329.776 141.273 330.256C141.273 330.724 141.099 331.12 140.751 331.444C140.415 331.756 139.983 331.912 139.455 331.912ZM140.985 332.956V343H137.907V332.956H140.985ZM149.336 332.848C150.512 332.848 151.448 333.232 152.144 334C152.852 334.756 153.206 335.8 153.206 337.132V343H150.146V337.546C150.146 336.874 149.972 336.352 149.624 335.98C149.276 335.608 148.808 335.422 148.22 335.422C147.632 335.422 147.164 335.608 146.816 335.98C146.468 336.352 146.294 336.874 146.294 337.546V343H143.216V332.956H146.294V334.288C146.606 333.844 147.026 333.496 147.554 333.244C148.082 332.98 148.676 332.848 149.336 332.848ZM159.161 332.812C159.869 332.812 160.487 332.956 161.015 333.244C161.555 333.532 161.969 333.91 162.257 334.378V332.956H165.335V342.982C165.335 343.906 165.149 344.74 164.777 345.484C164.417 346.24 163.859 346.84 163.103 347.284C162.359 347.728 161.429 347.95 160.313 347.95C158.825 347.95 157.619 347.596 156.695 346.888C155.771 346.192 155.243 345.244 155.111 344.044H158.153C158.249 344.428 158.477 344.728 158.837 344.944C159.197 345.172 159.641 345.286 160.169 345.286C160.805 345.286 161.309 345.1 161.681 344.728C162.065 344.368 162.257 343.786 162.257 342.982V341.56C161.957 342.028 161.543 342.412 161.015 342.712C160.487 343 159.869 343.144 159.161 343.144C158.333 343.144 157.583 342.934 156.911 342.514C156.239 342.082 155.705 341.476 155.309 340.696C154.925 339.904 154.733 338.992 154.733 337.96C154.733 336.928 154.925 336.022 155.309 335.242C155.705 334.462 156.239 333.862 156.911 333.442C157.583 333.022 158.333 332.812 159.161 332.812ZM162.257 337.978C162.257 337.21 162.041 336.604 161.609 336.16C161.189 335.716 160.673 335.494 160.061 335.494C159.449 335.494 158.927 335.716 158.495 336.16C158.075 336.592 157.865 337.192 157.865 337.96C157.865 338.728 158.075 339.34 158.495 339.796C158.927 340.24 159.449 340.462 160.061 340.462C160.673 340.462 161.189 340.24 161.609 339.796C162.041 339.352 162.257 338.746 162.257 337.978ZM171.647 343.144C170.771 343.144 169.991 342.994 169.307 342.694C168.623 342.394 168.083 341.986 167.687 341.47C167.291 340.942 167.069 340.354 167.021 339.706H170.063C170.099 340.054 170.261 340.336 170.549 340.552C170.837 340.768 171.191 340.876 171.611 340.876C171.995 340.876 172.289 340.804 172.493 340.66C172.709 340.504 172.817 340.306 172.817 340.066C172.817 339.778 172.667 339.568 172.367 339.436C172.067 339.292 171.581 339.136 170.909 338.968C170.189 338.8 169.589 338.626 169.109 338.446C168.629 338.254 168.215 337.96 167.867 337.564C167.519 337.156 167.345 336.61 167.345 335.926C167.345 335.35 167.501 334.828 167.813 334.36C168.137 333.88 168.605 333.502 169.217 333.226C169.841 332.95 170.579 332.812 171.431 332.812C172.691 332.812 173.681 333.124 174.401 333.748C175.133 334.372 175.553 335.2 175.661 336.232H172.817C172.769 335.884 172.613 335.608 172.349 335.404C172.097 335.2 171.761 335.098 171.341 335.098C170.981 335.098 170.705 335.17 170.513 335.314C170.321 335.446 170.225 335.632 170.225 335.872C170.225 336.16 170.375 336.376 170.675 336.52C170.987 336.664 171.467 336.808 172.115 336.952C172.859 337.144 173.465 337.336 173.933 337.528C174.401 337.708 174.809 338.008 175.157 338.428C175.517 338.836 175.703 339.388 175.715 340.084C175.715 340.672 175.547 341.2 175.211 341.668C174.887 342.124 174.413 342.484 173.789 342.748C173.177 343.012 172.463 343.144 171.647 343.144Z" fill="white"/>
<path d="M480.584 91.168C479.352 91.168 478.248 90.968 477.272 90.568C476.296 90.168 475.512 89.576 474.92 88.792C474.344 88.008 474.04 87.064 474.008 85.96H478.376C478.44 86.584 478.656 87.064 479.024 87.4C479.392 87.72 479.872 87.88 480.464 87.88C481.072 87.88 481.552 87.744 481.904 87.472C482.256 87.184 482.432 86.792 482.432 86.296C482.432 85.88 482.288 85.536 482 85.264C481.728 84.992 481.384 84.768 480.968 84.592C480.568 84.416 479.992 84.216 479.24 83.992C478.152 83.656 477.264 83.32 476.576 82.984C475.888 82.648 475.296 82.152 474.8 81.496C474.304 80.84 474.056 79.984 474.056 78.928C474.056 77.36 474.624 76.136 475.76 75.256C476.896 74.36 478.376 73.912 480.2 73.912C482.056 73.912 483.552 74.36 484.688 75.256C485.824 76.136 486.432 77.368 486.512 78.952H482.072C482.04 78.408 481.84 77.984 481.472 77.68C481.104 77.36 480.632 77.2 480.056 77.2C479.56 77.2 479.16 77.336 478.856 77.608C478.552 77.864 478.4 78.24 478.4 78.736C478.4 79.28 478.656 79.704 479.168 80.008C479.68 80.312 480.48 80.64 481.568 80.992C482.656 81.36 483.536 81.712 484.208 82.048C484.896 82.384 485.488 82.872 485.984 83.512C486.48 84.152 486.728 84.976 486.728 85.984C486.728 86.944 486.48 87.816 485.984 88.6C485.504 89.384 484.8 90.008 483.872 90.472C482.944 90.936 481.848 91.168 480.584 91.168ZM501.878 84.088C501.878 84.472 501.854 84.872 501.806 85.288H492.518C492.582 86.12 492.846 86.76 493.31 87.208C493.79 87.64 494.374 87.856 495.062 87.856C496.086 87.856 496.798 87.424 497.198 86.56H501.566C501.342 87.44 500.934 88.232 500.342 88.936C499.766 89.64 499.038 90.192 498.158 90.592C497.278 90.992 496.294 91.192 495.206 91.192C493.894 91.192 492.726 90.912 491.702 90.352C490.678 89.792 489.878 88.992 489.302 87.952C488.726 86.912 488.438 85.696 488.438 84.304C488.438 82.912 488.718 81.696 489.278 80.656C489.854 79.616 490.654 78.816 491.678 78.256C492.702 77.696 493.878 77.416 495.206 77.416C496.502 77.416 497.654 77.688 498.662 78.232C499.67 78.776 500.454 79.552 501.014 80.56C501.59 81.568 501.878 82.744 501.878 84.088ZM497.678 83.008C497.678 82.304 497.438 81.744 496.958 81.328C496.478 80.912 495.878 80.704 495.158 80.704C494.47 80.704 493.886 80.904 493.406 81.304C492.942 81.704 492.654 82.272 492.542 83.008H497.678ZM511.507 87.52V91H509.419C507.931 91 506.771 90.64 505.939 89.92C505.107 89.184 504.691 87.992 504.691 86.344V81.016H503.059V77.608H504.691V74.344H508.795V77.608H511.483V81.016H508.795V86.392C508.795 86.792 508.891 87.08 509.083 87.256C509.275 87.432 509.595 87.52 510.043 87.52H511.507ZM521.257 87.52V91H519.169C517.681 91 516.521 90.64 515.689 89.92C514.857 89.184 514.441 87.992 514.441 86.344V81.016H512.809V77.608H514.441V74.344H518.545V77.608H521.233V81.016H518.545V86.392C518.545 86.792 518.641 87.08 518.833 87.256C519.025 87.432 519.345 87.52 519.793 87.52H521.257ZM525.607 76.216C524.887 76.216 524.295 76.008 523.831 75.592C523.383 75.16 523.159 74.632 523.159 74.008C523.159 73.368 523.383 72.84 523.831 72.424C524.295 71.992 524.887 71.776 525.607 71.776C526.311 71.776 526.887 71.992 527.335 72.424C527.799 72.84 528.031 73.368 528.031 74.008C528.031 74.632 527.799 75.16 527.335 75.592C526.887 76.008 526.311 76.216 525.607 76.216ZM527.647 77.608V91H523.543V77.608H527.647ZM538.781 77.464C540.349 77.464 541.597 77.976 542.525 79C543.469 80.008 543.941 81.4 543.941 83.176V91H539.861V83.728C539.861 82.832 539.629 82.136 539.165 81.64C538.701 81.144 538.077 80.896 537.293 80.896C536.509 80.896 535.885 81.144 535.421 81.64C534.957 82.136 534.725 82.832 534.725 83.728V91H530.621V77.608H534.725V79.384C535.141 78.792 535.701 78.328 536.405 77.992C537.109 77.64 537.901 77.464 538.781 77.464ZM551.881 77.416C552.825 77.416 553.649 77.608 554.353 77.992C555.073 78.376 555.625 78.88 556.009 79.504V77.608H560.113V90.976C560.113 92.208 559.865 93.32 559.369 94.312C558.889 95.32 558.145 96.12 557.137 96.712C556.145 97.304 554.905 97.6 553.417 97.6C551.433 97.6 549.825 97.128 548.593 96.184C547.361 95.256 546.657 93.992 546.481 92.392H550.537C550.665 92.904 550.969 93.304 551.449 93.592C551.929 93.896 552.521 94.048 553.225 94.048C554.073 94.048 554.745 93.8 555.241 93.304C555.753 92.824 556.009 92.048 556.009 90.976V89.08C555.609 89.704 555.057 90.216 554.353 90.616C553.649 91 552.825 91.192 551.881 91.192C550.777 91.192 549.777 90.912 548.881 90.352C547.985 89.776 547.273 88.968 546.745 87.928C546.233 86.872 545.977 85.656 545.977 84.28C545.977 82.904 546.233 81.696 546.745 80.656C547.273 79.616 547.985 78.816 548.881 78.256C549.777 77.696 550.777 77.416 551.881 77.416ZM556.009 84.304C556.009 83.28 555.721 82.472 555.145 81.88C554.585 81.288 553.897 80.992 553.081 80.992C552.265 80.992 551.569 81.288 550.993 81.88C550.433 82.456 550.153 83.256 550.153 84.28C550.153 85.304 550.433 86.12 550.993 86.728C551.569 87.32 552.265 87.616 553.081 87.616C553.897 87.616 554.585 87.32 555.145 86.728C555.721 86.136 556.009 85.328 556.009 84.304ZM568.53 91.192C567.362 91.192 566.322 90.992 565.41 90.592C564.498 90.192 563.778 89.648 563.25 88.96C562.722 88.256 562.426 87.472 562.362 86.608H566.418C566.466 87.072 566.682 87.448 567.066 87.736C567.45 88.024 567.922 88.168 568.482 88.168C568.994 88.168 569.386 88.072 569.658 87.88C569.946 87.672 570.09 87.408 570.09 87.088C570.09 86.704 569.89 86.424 569.49 86.248C569.09 86.056 568.442 85.848 567.546 85.624C566.586 85.4 565.786 85.168 565.146 84.928C564.506 84.672 563.954 84.28 563.49 83.752C563.026 83.208 562.794 82.48 562.794 81.568C562.794 80.8 563.002 80.104 563.418 79.48C563.85 78.84 564.474 78.336 565.29 77.968C566.122 77.6 567.106 77.416 568.242 77.416C569.922 77.416 571.242 77.832 572.202 78.664C573.178 79.496 573.738 80.6 573.882 81.976H570.09C570.026 81.512 569.818 81.144 569.466 80.872C569.13 80.6 568.682 80.464 568.122 80.464C567.642 80.464 567.274 80.56 567.018 80.752C566.762 80.928 566.634 81.176 566.634 81.496C566.634 81.88 566.834 82.168 567.234 82.36C567.65 82.552 568.29 82.744 569.154 82.936C570.146 83.192 570.954 83.448 571.578 83.704C572.202 83.944 572.746 84.344 573.21 84.904C573.69 85.448 573.938 86.184 573.954 87.112C573.954 87.896 573.73 88.6 573.282 89.224C572.85 89.832 572.218 90.312 571.386 90.664C570.57 91.016 569.618 91.192 568.53 91.192Z" fill="#515151"/>
<g clip-path="url(#clip4_3_71)">
<path d="M86.14 337.936C86.176 337.636 86.2 337.324 86.2 337C86.2 336.676 86.176 336.364 86.128 336.064L88.156 334.48C88.336 334.336 88.384 334.072 88.276 333.868L86.356 330.544C86.236 330.328 85.984 330.256 85.768 330.328L83.38 331.288C82.876 330.904 82.348 330.592 81.76 330.352L81.4 327.808C81.364 327.568 81.16 327.4 80.92 327.4H77.08C76.84 327.4 76.648 327.568 76.612 327.808L76.252 330.352C75.664 330.592 75.124 330.916 74.632 331.288L72.244 330.328C72.028 330.244 71.776 330.328 71.656 330.544L69.736 333.868C69.616 334.084 69.664 334.336 69.856 334.48L71.884 336.064C71.836 336.364 71.8 336.688 71.8 337C71.8 337.312 71.824 337.636 71.872 337.936L69.844 339.52C69.664 339.664 69.616 339.928 69.724 340.132L71.644 343.456C71.764 343.672 72.016 343.744 72.232 343.672L74.62 342.712C75.124 343.096 75.652 343.408 76.24 343.648L76.6 346.192C76.648 346.432 76.84 346.6 77.08 346.6H80.92C81.16 346.6 81.364 346.432 81.388 346.192L81.748 343.648C82.336 343.408 82.876 343.084 83.368 342.712L85.756 343.672C85.972 343.756 86.224 343.672 86.344 343.456L88.264 340.132C88.384 339.916 88.336 339.664 88.144 339.52L86.14 337.936ZM79 340.6C77.02 340.6 75.4 338.98 75.4 337C75.4 335.02 77.02 333.4 79 333.4C80.98 333.4 82.6 335.02 82.6 337C82.6 338.98 80.98 340.6 79 340.6Z" fill="white"/>
</g>
<rect x="455.5" y="194.5" width="399" height="74" fill="white" stroke="#828282"/>
<path d="M484.594 231.664C484.594 230.416 484.864 229.306 485.404 228.334C485.944 227.35 486.694 226.588 487.654 226.048C488.626 225.496 489.724 225.22 490.948 225.22C492.448 225.22 493.732 225.616 494.8 226.408C495.868 227.2 496.582 228.28 496.942 229.648H493.558C493.306 229.12 492.946 228.718 492.478 228.442C492.022 228.166 491.5 228.028 490.912 228.028C489.964 228.028 489.196 228.358 488.608 229.018C488.02 229.678 487.726 230.56 487.726 231.664C487.726 232.768 488.02 233.65 488.608 234.31C489.196 234.97 489.964 235.3 490.912 235.3C491.5 235.3 492.022 235.162 492.478 234.886C492.946 234.61 493.306 234.208 493.558 233.68H496.942C496.582 235.048 495.868 236.128 494.8 236.92C493.732 237.7 492.448 238.09 490.948 238.09C489.724 238.09 488.626 237.82 487.654 237.28C486.694 236.728 485.944 235.966 485.404 234.994C484.864 234.022 484.594 232.912 484.594 231.664ZM503.399 238.144C502.415 238.144 501.527 237.934 500.735 237.514C499.955 237.094 499.337 236.494 498.881 235.714C498.437 234.934 498.215 234.022 498.215 232.978C498.215 231.946 498.443 231.04 498.899 230.26C499.355 229.468 499.979 228.862 500.771 228.442C501.563 228.022 502.451 227.812 503.435 227.812C504.419 227.812 505.307 228.022 506.099 228.442C506.891 228.862 507.515 229.468 507.971 230.26C508.427 231.04 508.655 231.946 508.655 232.978C508.655 234.01 508.421 234.922 507.953 235.714C507.497 236.494 506.867 237.094 506.063 237.514C505.271 237.934 504.383 238.144 503.399 238.144ZM503.399 235.48C503.987 235.48 504.485 235.264 504.893 234.832C505.313 234.4 505.523 233.782 505.523 232.978C505.523 232.174 505.319 231.556 504.911 231.124C504.515 230.692 504.023 230.476 503.435 230.476C502.835 230.476 502.337 230.692 501.941 231.124C501.545 231.544 501.347 232.162 501.347 232.978C501.347 233.782 501.539 234.4 501.923 234.832C502.319 235.264 502.811 235.48 503.399 235.48ZM513.366 224.68V238H510.288V224.68H513.366ZM518.674 224.68V238H515.596V224.68H518.674ZM530.373 232.816C530.373 233.104 530.355 233.404 530.319 233.716H523.353C523.401 234.34 523.599 234.82 523.947 235.156C524.307 235.48 524.745 235.642 525.261 235.642C526.029 235.642 526.563 235.318 526.863 234.67H530.139C529.971 235.33 529.665 235.924 529.221 236.452C528.789 236.98 528.243 237.394 527.583 237.694C526.923 237.994 526.185 238.144 525.369 238.144C524.385 238.144 523.509 237.934 522.741 237.514C521.973 237.094 521.373 236.494 520.941 235.714C520.509 234.934 520.293 234.022 520.293 232.978C520.293 231.934 520.503 231.022 520.923 230.242C521.355 229.462 521.955 228.862 522.723 228.442C523.491 228.022 524.373 227.812 525.369 227.812C526.341 227.812 527.205 228.016 527.961 228.424C528.717 228.832 529.305 229.414 529.725 230.17C530.157 230.926 530.373 231.808 530.373 232.816ZM527.223 232.006C527.223 231.478 527.043 231.058 526.683 230.746C526.323 230.434 525.873 230.278 525.333 230.278C524.817 230.278 524.379 230.428 524.019 230.728C523.671 231.028 523.455 231.454 523.371 232.006H527.223ZM531.385 232.978C531.385 231.934 531.595 231.022 532.015 230.242C532.447 229.462 533.041 228.862 533.797 228.442C534.565 228.022 535.441 227.812 536.425 227.812C537.685 227.812 538.735 228.142 539.575 228.802C540.427 229.462 540.985 230.392 541.249 231.592H537.973C537.697 230.824 537.163 230.44 536.371 230.44C535.807 230.44 535.357 230.662 535.021 231.106C534.685 231.538 534.517 232.162 534.517 232.978C534.517 233.794 534.685 234.424 535.021 234.868C535.357 235.3 535.807 235.516 536.371 235.516C537.163 235.516 537.697 235.132 537.973 234.364H541.249C540.985 235.54 540.427 236.464 539.575 237.136C538.723 237.808 537.673 238.144 536.425 238.144C535.441 238.144 534.565 237.934 533.797 237.514C533.041 237.094 532.447 236.494 532.015 235.714C531.595 234.934 531.385 234.022 531.385 232.978ZM548.493 235.39V238H546.927C545.811 238 544.941 237.73 544.317 237.19C543.693 236.638 543.381 235.744 543.381 234.508V230.512H542.157V227.956H543.381V225.508H546.459V227.956H548.475V230.512H546.459V234.544C546.459 234.844 546.531 235.06 546.675 235.192C546.819 235.324 547.059 235.39 547.395 235.39H548.493ZM558.756 225.364C560.088 225.364 561.252 225.628 562.248 226.156C563.244 226.684 564.012 227.428 564.552 228.388C565.104 229.336 565.38 230.434 565.38 231.682C565.38 232.918 565.104 234.016 564.552 234.976C564.012 235.936 563.238 236.68 562.23 237.208C561.234 237.736 560.076 238 558.756 238H554.022V225.364H558.756ZM558.558 235.336C559.722 235.336 560.628 235.018 561.276 234.382C561.924 233.746 562.248 232.846 562.248 231.682C562.248 230.518 561.924 229.612 561.276 228.964C560.628 228.316 559.722 227.992 558.558 227.992H557.1V235.336H558.558ZM566.488 232.96C566.488 231.928 566.68 231.022 567.064 230.242C567.46 229.462 567.994 228.862 568.666 228.442C569.338 228.022 570.088 227.812 570.916 227.812C571.624 227.812 572.242 227.956 572.77 228.244C573.31 228.532 573.724 228.91 574.012 229.378V227.956H577.09V238H574.012V236.578C573.712 237.046 573.292 237.424 572.752 237.712C572.224 238 571.606 238.144 570.898 238.144C570.082 238.144 569.338 237.934 568.666 237.514C567.994 237.082 567.46 236.476 567.064 235.696C566.68 234.904 566.488 233.992 566.488 232.96ZM574.012 232.978C574.012 232.21 573.796 231.604 573.364 231.16C572.944 230.716 572.428 230.494 571.816 230.494C571.204 230.494 570.682 230.716 570.25 231.16C569.83 231.592 569.62 232.192 569.62 232.96C569.62 233.728 569.83 234.34 570.25 234.796C570.682 235.24 571.204 235.462 571.816 235.462C572.428 235.462 572.944 235.24 573.364 234.796C573.796 234.352 574.012 233.746 574.012 232.978ZM584.915 235.39V238H583.349C582.233 238 581.363 237.73 580.739 237.19C580.115 236.638 579.803 235.744 579.803 234.508V230.512H578.579V227.956H579.803V225.508H582.881V227.956H584.897V230.512H582.881V234.544C582.881 234.844 582.953 235.06 583.097 235.192C583.241 235.324 583.481 235.39 583.817 235.39H584.915ZM586.018 232.96C586.018 231.928 586.21 231.022 586.594 230.242C586.99 229.462 587.524 228.862 588.196 228.442C588.868 228.022 589.618 227.812 590.446 227.812C591.154 227.812 591.772 227.956 592.3 228.244C592.84 228.532 593.254 228.91 593.542 229.378V227.956H596.62V238H593.542V236.578C593.242 237.046 592.822 237.424 592.282 237.712C591.754 238 591.136 238.144 590.428 238.144C589.612 238.144 588.868 237.934 588.196 237.514C587.524 237.082 586.99 236.476 586.594 235.696C586.21 234.904 586.018 233.992 586.018 232.96ZM593.542 232.978C593.542 232.21 593.326 231.604 592.894 231.16C592.474 230.716 591.958 230.494 591.346 230.494C590.734 230.494 590.212 230.716 589.78 231.16C589.36 231.592 589.15 232.192 589.15 232.96C589.15 233.728 589.36 234.34 589.78 234.796C590.212 235.24 590.734 235.462 591.346 235.462C591.958 235.462 592.474 235.24 592.894 234.796C593.326 234.352 593.542 233.746 593.542 232.978Z" fill="black"/>
<rect x="787.5" y="213.5" width="39" height="39" fill="white" stroke="#4F4F4F"/>
<rect x="455.5" y="300.5" width="399" height="74" fill="white" stroke="#828282"/>
<path d="M497.932 333.848C499.18 333.848 500.17 334.226 500.902 334.982C501.646 335.738 502.018 336.788 502.018 338.132V344H498.958V338.546C498.958 337.898 498.784 337.4 498.436 337.052C498.1 336.692 497.632 336.512 497.032 336.512C496.432 336.512 495.958 336.692 495.61 337.052C495.274 337.4 495.106 337.898 495.106 338.546V344H492.046V338.546C492.046 337.898 491.872 337.4 491.524 337.052C491.188 336.692 490.72 336.512 490.12 336.512C489.52 336.512 489.046 336.692 488.698 337.052C488.362 337.4 488.194 337.898 488.194 338.546V344H485.116V333.956H488.194V335.216C488.506 334.796 488.914 334.466 489.418 334.226C489.922 333.974 490.492 333.848 491.128 333.848C491.884 333.848 492.556 334.01 493.144 334.334C493.744 334.658 494.212 335.12 494.548 335.72C494.896 335.168 495.37 334.718 495.97 334.37C496.57 334.022 497.224 333.848 497.932 333.848ZM503.559 338.96C503.559 337.928 503.751 337.022 504.135 336.242C504.531 335.462 505.065 334.862 505.737 334.442C506.409 334.022 507.159 333.812 507.987 333.812C508.695 333.812 509.313 333.956 509.841 334.244C510.381 334.532 510.795 334.91 511.083 335.378V333.956H514.161V344H511.083V342.578C510.783 343.046 510.363 343.424 509.823 343.712C509.295 344 508.677 344.144 507.969 344.144C507.153 344.144 506.409 343.934 505.737 343.514C505.065 343.082 504.531 342.476 504.135 341.696C503.751 340.904 503.559 339.992 503.559 338.96ZM511.083 338.978C511.083 338.21 510.867 337.604 510.435 337.16C510.015 336.716 509.499 336.494 508.887 336.494C508.275 336.494 507.753 336.716 507.321 337.16C506.901 337.592 506.691 338.192 506.691 338.96C506.691 339.728 506.901 340.34 507.321 340.796C507.753 341.24 508.275 341.462 508.887 341.462C509.499 341.462 510.015 341.24 510.435 340.796C510.867 340.352 511.083 339.746 511.083 338.978ZM517.935 332.912C517.395 332.912 516.951 332.756 516.603 332.444C516.267 332.12 516.099 331.724 516.099 331.256C516.099 330.776 516.267 330.38 516.603 330.068C516.951 329.744 517.395 329.582 517.935 329.582C518.463 329.582 518.895 329.744 519.231 330.068C519.579 330.38 519.753 330.776 519.753 331.256C519.753 331.724 519.579 332.12 519.231 332.444C518.895 332.756 518.463 332.912 517.935 332.912ZM519.465 333.956V344H516.387V333.956H519.465ZM524.774 330.68V344H521.696V330.68H524.774ZM537.013 331.976C538.429 331.976 539.665 332.246 540.721 332.786C541.777 333.314 542.587 334.064 543.151 335.036C543.727 335.996 544.015 337.106 544.015 338.366C544.015 339.386 543.835 340.334 543.475 341.21C543.127 342.086 542.605 342.788 541.909 343.316C541.225 343.832 540.409 344.09 539.461 344.09C538.825 344.09 538.297 343.964 537.877 343.712C537.469 343.46 537.193 343.106 537.049 342.65C536.713 343.118 536.281 343.484 535.753 343.748C535.225 344 534.649 344.126 534.025 344.126C533.137 344.126 532.435 343.862 531.919 343.334C531.415 342.794 531.163 342.062 531.163 341.138C531.163 340.262 531.343 339.44 531.703 338.672C532.063 337.892 532.561 337.268 533.197 336.8C533.833 336.332 534.547 336.098 535.339 336.098C536.347 336.098 537.031 336.458 537.391 337.178L537.553 336.224H540.037L539.245 340.742C539.209 340.958 539.191 341.15 539.191 341.318C539.191 341.846 539.425 342.11 539.893 342.11C540.469 342.11 540.907 341.744 541.207 341.012C541.519 340.268 541.675 339.416 541.675 338.456C541.675 337.076 541.237 335.996 540.361 335.216C539.497 334.436 538.279 334.046 536.707 334.046C535.363 334.046 534.139 334.37 533.035 335.018C531.943 335.666 531.085 336.554 530.461 337.682C529.837 338.798 529.525 340.028 529.525 341.372C529.525 342.824 529.945 343.952 530.785 344.756C531.637 345.56 532.825 345.962 534.349 345.962C535.537 345.962 536.599 345.746 537.535 345.314L538.021 347.276C536.845 347.792 535.525 348.05 534.061 348.05C532.693 348.05 531.487 347.786 530.443 347.258C529.411 346.73 528.613 345.98 528.049 345.008C527.485 344.036 527.203 342.902 527.203 341.606C527.203 339.794 527.629 338.156 528.481 336.692C529.333 335.216 530.503 334.064 531.991 333.236C533.491 332.396 535.165 331.976 537.013 331.976ZM535.033 341.912C535.369 341.912 535.681 341.81 535.969 341.606C536.269 341.402 536.503 341.132 536.671 340.796C536.851 340.448 536.941 340.076 536.941 339.68C536.941 339.272 536.827 338.942 536.599 338.69C536.371 338.426 536.059 338.294 535.663 338.294C535.135 338.294 534.697 338.522 534.349 338.978C534.001 339.434 533.827 339.974 533.827 340.598C533.827 340.994 533.929 341.312 534.133 341.552C534.337 341.792 534.637 341.912 535.033 341.912ZM555.914 338.816C555.914 339.104 555.896 339.404 555.86 339.716H548.894C548.942 340.34 549.14 340.82 549.488 341.156C549.848 341.48 550.286 341.642 550.802 341.642C551.57 341.642 552.104 341.318 552.404 340.67H555.68C555.512 341.33 555.206 341.924 554.762 342.452C554.33 342.98 553.784 343.394 553.124 343.694C552.464 343.994 551.726 344.144 550.91 344.144C549.926 344.144 549.05 343.934 548.282 343.514C547.514 343.094 546.914 342.494 546.482 341.714C546.05 340.934 545.834 340.022 545.834 338.978C545.834 337.934 546.044 337.022 546.464 336.242C546.896 335.462 547.496 334.862 548.264 334.442C549.032 334.022 549.914 333.812 550.91 333.812C551.882 333.812 552.746 334.016 553.502 334.424C554.258 334.832 554.846 335.414 555.266 336.17C555.698 336.926 555.914 337.808 555.914 338.816ZM552.764 338.006C552.764 337.478 552.584 337.058 552.224 336.746C551.864 336.434 551.414 336.278 550.874 336.278C550.358 336.278 549.92 336.428 549.56 336.728C549.212 337.028 548.996 337.454 548.912 338.006H552.764ZM563.478 344L561.552 341.21L559.932 344H556.602L559.914 338.87L556.512 333.956H559.968L561.894 336.728L563.514 333.956H566.844L563.478 339.014L566.934 344H563.478ZM567.508 338.96C567.508 337.928 567.7 337.022 568.084 336.242C568.48 335.462 569.014 334.862 569.686 334.442C570.358 334.022 571.108 333.812 571.936 333.812C572.644 333.812 573.262 333.956 573.79 334.244C574.33 334.532 574.744 334.91 575.032 335.378V333.956H578.11V344H575.032V342.578C574.732 343.046 574.312 343.424 573.772 343.712C573.244 344 572.626 344.144 571.918 344.144C571.102 344.144 570.358 343.934 569.686 343.514C569.014 343.082 568.48 342.476 568.084 341.696C567.7 340.904 567.508 339.992 567.508 338.96ZM575.032 338.978C575.032 338.21 574.816 337.604 574.384 337.16C573.964 336.716 573.448 336.494 572.836 336.494C572.224 336.494 571.702 336.716 571.27 337.16C570.85 337.592 570.64 338.192 570.64 338.96C570.64 339.728 570.85 340.34 571.27 340.796C571.702 341.24 572.224 341.462 572.836 341.462C573.448 341.462 573.964 341.24 574.384 340.796C574.816 340.352 575.032 339.746 575.032 338.978ZM593.153 333.848C594.401 333.848 595.391 334.226 596.123 334.982C596.867 335.738 597.239 336.788 597.239 338.132V344H594.179V338.546C594.179 337.898 594.005 337.4 593.657 337.052C593.321 336.692 592.853 336.512 592.253 336.512C591.653 336.512 591.179 336.692 590.831 337.052C590.495 337.4 590.327 337.898 590.327 338.546V344H587.267V338.546C587.267 337.898 587.093 337.4 586.745 337.052C586.409 336.692 585.941 336.512 585.341 336.512C584.741 336.512 584.267 336.692 583.919 337.052C583.583 337.4 583.415 337.898 583.415 338.546V344H580.337V333.956H583.415V335.216C583.727 334.796 584.135 334.466 584.639 334.226C585.143 333.974 585.713 333.848 586.349 333.848C587.105 333.848 587.777 334.01 588.365 334.334C588.965 334.658 589.433 335.12 589.769 335.72C590.117 335.168 590.591 334.718 591.191 334.37C591.791 334.022 592.445 333.848 593.153 333.848ZM602.469 335.378C602.769 334.91 603.183 334.532 603.711 334.244C604.239 333.956 604.857 333.812 605.565 333.812C606.393 333.812 607.143 334.022 607.815 334.442C608.487 334.862 609.015 335.462 609.399 336.242C609.795 337.022 609.993 337.928 609.993 338.96C609.993 339.992 609.795 340.904 609.399 341.696C609.015 342.476 608.487 343.082 607.815 343.514C607.143 343.934 606.393 344.144 605.565 344.144C604.869 344.144 604.251 344 603.711 343.712C603.183 343.424 602.769 343.052 602.469 342.596V348.788H599.391V333.956H602.469V335.378ZM606.861 338.96C606.861 338.192 606.645 337.592 606.213 337.16C605.793 336.716 605.271 336.494 604.647 336.494C604.035 336.494 603.513 336.716 603.081 337.16C602.661 337.604 602.451 338.21 602.451 338.978C602.451 339.746 602.661 340.352 603.081 340.796C603.513 341.24 604.035 341.462 604.647 341.462C605.259 341.462 605.781 341.24 606.213 340.796C606.645 340.34 606.861 339.728 606.861 338.96ZM614.686 330.68V344H611.608V330.68H614.686ZM626.385 338.816C626.385 339.104 626.367 339.404 626.331 339.716H619.365C619.413 340.34 619.611 340.82 619.959 341.156C620.319 341.48 620.757 341.642 621.273 341.642C622.041 341.642 622.575 341.318 622.875 340.67H626.151C625.983 341.33 625.677 341.924 625.233 342.452C624.801 342.98 624.255 343.394 623.595 343.694C622.935 343.994 622.197 344.144 621.381 344.144C620.397 344.144 619.521 343.934 618.753 343.514C617.985 343.094 617.385 342.494 616.953 341.714C616.521 340.934 616.305 340.022 616.305 338.978C616.305 337.934 616.515 337.022 616.935 336.242C617.367 335.462 617.967 334.862 618.735 334.442C619.503 334.022 620.385 333.812 621.381 333.812C622.353 333.812 623.217 334.016 623.973 334.424C624.729 334.832 625.317 335.414 625.737 336.17C626.169 336.926 626.385 337.808 626.385 338.816ZM623.235 338.006C623.235 337.478 623.055 337.058 622.695 336.746C622.335 336.434 621.885 336.278 621.345 336.278C620.829 336.278 620.391 336.428 620.031 336.728C619.683 337.028 619.467 337.454 619.383 338.006H623.235ZM629.449 344.144C628.909 344.144 628.465 343.988 628.117 343.676C627.781 343.352 627.613 342.956 627.613 342.488C627.613 342.008 627.781 341.606 628.117 341.282C628.465 340.958 628.909 340.796 629.449 340.796C629.977 340.796 630.409 340.958 630.745 341.282C631.093 341.606 631.267 342.008 631.267 342.488C631.267 342.956 631.093 343.352 630.745 343.676C630.409 343.988 629.977 344.144 629.449 344.144ZM632.477 338.978C632.477 337.934 632.687 337.022 633.107 336.242C633.539 335.462 634.133 334.862 634.889 334.442C635.657 334.022 636.533 333.812 637.517 333.812C638.777 333.812 639.827 334.142 640.667 334.802C641.519 335.462 642.077 336.392 642.341 337.592H639.065C638.789 336.824 638.255 336.44 637.463 336.44C636.899 336.44 636.449 336.662 636.113 337.106C635.777 337.538 635.609 338.162 635.609 338.978C635.609 339.794 635.777 340.424 636.113 340.868C636.449 341.3 636.899 341.516 637.463 341.516C638.255 341.516 638.789 341.132 639.065 340.364H642.341C642.077 341.54 641.519 342.464 640.667 343.136C639.815 343.808 638.765 344.144 637.517 344.144C636.533 344.144 635.657 343.934 634.889 343.514C634.133 343.094 633.539 342.494 633.107 341.714C632.687 340.934 632.477 340.022 632.477 338.978ZM648.559 344.144C647.575 344.144 646.687 343.934 645.895 343.514C645.115 343.094 644.497 342.494 644.041 341.714C643.597 340.934 643.375 340.022 643.375 338.978C643.375 337.946 643.603 337.04 644.059 336.26C644.515 335.468 645.139 334.862 645.931 334.442C646.723 334.022 647.611 333.812 648.595 333.812C649.579 333.812 650.467 334.022 651.259 334.442C652.051 334.862 652.675 335.468 653.131 336.26C653.587 337.04 653.815 337.946 653.815 338.978C653.815 340.01 653.581 340.922 653.113 341.714C652.657 342.494 652.027 343.094 651.223 343.514C650.431 343.934 649.543 344.144 648.559 344.144ZM648.559 341.48C649.147 341.48 649.645 341.264 650.053 340.832C650.473 340.4 650.683 339.782 650.683 338.978C650.683 338.174 650.479 337.556 650.071 337.124C649.675 336.692 649.183 336.476 648.595 336.476C647.995 336.476 647.497 336.692 647.101 337.124C646.705 337.544 646.507 338.162 646.507 338.978C646.507 339.782 646.699 340.4 647.083 340.832C647.479 341.264 647.971 341.48 648.559 341.48ZM668.264 333.848C669.512 333.848 670.502 334.226 671.234 334.982C671.978 335.738 672.35 336.788 672.35 338.132V344H669.29V338.546C669.29 337.898 669.116 337.4 668.768 337.052C668.432 336.692 667.964 336.512 667.364 336.512C666.764 336.512 666.29 336.692 665.942 337.052C665.606 337.4 665.438 337.898 665.438 338.546V344H662.378V338.546C662.378 337.898 662.204 337.4 661.856 337.052C661.52 336.692 661.052 336.512 660.452 336.512C659.852 336.512 659.378 336.692 659.03 337.052C658.694 337.4 658.526 337.898 658.526 338.546V344H655.448V333.956H658.526V335.216C658.838 334.796 659.246 334.466 659.75 334.226C660.254 333.974 660.824 333.848 661.46 333.848C662.216 333.848 662.888 334.01 663.476 334.334C664.076 334.658 664.544 335.12 664.88 335.72C665.228 335.168 665.702 334.718 666.302 334.37C666.902 334.022 667.556 333.848 668.264 333.848Z" fill="black"/>
<rect x="455.5" y="396.5" width="399" height="74" fill="white" stroke="#828282"/>
<path d="M488.194 431.378C488.494 430.91 488.908 430.532 489.436 430.244C489.964 429.956 490.582 429.812 491.29 429.812C492.118 429.812 492.868 430.022 493.54 430.442C494.212 430.862 494.74 431.462 495.124 432.242C495.52 433.022 495.718 433.928 495.718 434.96C495.718 435.992 495.52 436.904 495.124 437.696C494.74 438.476 494.212 439.082 493.54 439.514C492.868 439.934 492.118 440.144 491.29 440.144C490.594 440.144 489.976 440 489.436 439.712C488.908 439.424 488.494 439.052 488.194 438.596V444.788H485.116V429.956H488.194V431.378ZM492.586 434.96C492.586 434.192 492.37 433.592 491.938 433.16C491.518 432.716 490.996 432.494 490.372 432.494C489.76 432.494 489.238 432.716 488.806 433.16C488.386 433.604 488.176 434.21 488.176 434.978C488.176 435.746 488.386 436.352 488.806 436.796C489.238 437.24 489.76 437.462 490.372 437.462C490.984 437.462 491.506 437.24 491.938 436.796C492.37 436.34 492.586 435.728 492.586 434.96ZM496.721 434.96C496.721 433.928 496.913 433.022 497.297 432.242C497.693 431.462 498.227 430.862 498.899 430.442C499.571 430.022 500.321 429.812 501.149 429.812C501.857 429.812 502.475 429.956 503.003 430.244C503.543 430.532 503.957 430.91 504.245 431.378V429.956H507.323V440H504.245V438.578C503.945 439.046 503.525 439.424 502.985 439.712C502.457 440 501.839 440.144 501.131 440.144C500.315 440.144 499.571 439.934 498.899 439.514C498.227 439.082 497.693 438.476 497.297 437.696C496.913 436.904 496.721 435.992 496.721 434.96ZM504.245 434.978C504.245 434.21 504.029 433.604 503.597 433.16C503.177 432.716 502.661 432.494 502.049 432.494C501.437 432.494 500.915 432.716 500.483 433.16C500.063 433.592 499.853 434.192 499.853 434.96C499.853 435.728 500.063 436.34 500.483 436.796C500.915 437.24 501.437 437.462 502.049 437.462C502.661 437.462 503.177 437.24 503.597 436.796C504.029 436.352 504.245 435.746 504.245 434.978ZM513.636 440.144C512.76 440.144 511.98 439.994 511.296 439.694C510.612 439.394 510.072 438.986 509.676 438.47C509.28 437.942 509.058 437.354 509.01 436.706H512.052C512.088 437.054 512.25 437.336 512.538 437.552C512.826 437.768 513.18 437.876 513.6 437.876C513.984 437.876 514.278 437.804 514.482 437.66C514.698 437.504 514.806 437.306 514.806 437.066C514.806 436.778 514.656 436.568 514.356 436.436C514.056 436.292 513.57 436.136 512.898 435.968C512.178 435.8 511.578 435.626 511.098 435.446C510.618 435.254 510.204 434.96 509.856 434.564C509.508 434.156 509.334 433.61 509.334 432.926C509.334 432.35 509.49 431.828 509.802 431.36C510.126 430.88 510.594 430.502 511.206 430.226C511.83 429.95 512.568 429.812 513.42 429.812C514.68 429.812 515.67 430.124 516.39 430.748C517.122 431.372 517.542 432.2 517.65 433.232H514.806C514.758 432.884 514.602 432.608 514.338 432.404C514.086 432.2 513.75 432.098 513.33 432.098C512.97 432.098 512.694 432.17 512.502 432.314C512.31 432.446 512.214 432.632 512.214 432.872C512.214 433.16 512.364 433.376 512.664 433.52C512.976 433.664 513.456 433.808 514.104 433.952C514.848 434.144 515.454 434.336 515.922 434.528C516.39 434.708 516.798 435.008 517.146 435.428C517.506 435.836 517.692 436.388 517.704 437.084C517.704 437.672 517.536 438.2 517.2 438.668C516.876 439.124 516.402 439.484 515.778 439.748C515.166 440.012 514.452 440.144 513.636 440.144ZM523.673 440.144C522.797 440.144 522.017 439.994 521.333 439.694C520.649 439.394 520.109 438.986 519.713 438.47C519.317 437.942 519.095 437.354 519.047 436.706H522.089C522.125 437.054 522.287 437.336 522.575 437.552C522.863 437.768 523.217 437.876 523.637 437.876C524.021 437.876 524.315 437.804 524.519 437.66C524.735 437.504 524.843 437.306 524.843 437.066C524.843 436.778 524.693 436.568 524.393 436.436C524.093 436.292 523.607 436.136 522.935 435.968C522.215 435.8 521.615 435.626 521.135 435.446C520.655 435.254 520.241 434.96 519.893 434.564C519.545 434.156 519.371 433.61 519.371 432.926C519.371 432.35 519.527 431.828 519.839 431.36C520.163 430.88 520.631 430.502 521.243 430.226C521.867 429.95 522.605 429.812 523.457 429.812C524.717 429.812 525.707 430.124 526.427 430.748C527.159 431.372 527.579 432.2 527.687 433.232H524.843C524.795 432.884 524.639 432.608 524.375 432.404C524.123 432.2 523.787 432.098 523.367 432.098C523.007 432.098 522.731 432.17 522.539 432.314C522.347 432.446 522.251 432.632 522.251 432.872C522.251 433.16 522.401 433.376 522.701 433.52C523.013 433.664 523.493 433.808 524.141 433.952C524.885 434.144 525.491 434.336 525.959 434.528C526.427 434.708 526.835 435.008 527.183 435.428C527.543 435.836 527.729 436.388 527.741 437.084C527.741 437.672 527.573 438.2 527.237 438.668C526.913 439.124 526.439 439.484 525.815 439.748C525.203 440.012 524.489 440.144 523.673 440.144ZM544.042 429.956L541.324 440H537.922L536.338 433.484L534.7 440H531.316L528.58 429.956H531.658L533.08 437.138L534.772 429.956H538.03L539.74 437.102L541.144 429.956H544.042ZM549.788 440.144C548.804 440.144 547.916 439.934 547.124 439.514C546.344 439.094 545.726 438.494 545.27 437.714C544.826 436.934 544.604 436.022 544.604 434.978C544.604 433.946 544.832 433.04 545.288 432.26C545.744 431.468 546.368 430.862 547.16 430.442C547.952 430.022 548.84 429.812 549.824 429.812C550.808 429.812 551.696 430.022 552.488 430.442C553.28 430.862 553.904 431.468 554.36 432.26C554.816 433.04 555.044 433.946 555.044 434.978C555.044 436.01 554.81 436.922 554.342 437.714C553.886 438.494 553.256 439.094 552.452 439.514C551.66 439.934 550.772 440.144 549.788 440.144ZM549.788 437.48C550.376 437.48 550.874 437.264 551.282 436.832C551.702 436.4 551.912 435.782 551.912 434.978C551.912 434.174 551.708 433.556 551.3 433.124C550.904 432.692 550.412 432.476 549.824 432.476C549.224 432.476 548.726 432.692 548.33 433.124C547.934 433.544 547.736 434.162 547.736 434.978C547.736 435.782 547.928 436.4 548.312 436.832C548.708 437.264 549.2 437.48 549.788 437.48ZM559.755 431.63C560.115 431.078 560.565 430.646 561.105 430.334C561.645 430.01 562.245 429.848 562.905 429.848V433.106H562.059C561.291 433.106 560.715 433.274 560.331 433.61C559.947 433.934 559.755 434.51 559.755 435.338V440H556.677V429.956H559.755V431.63ZM563.764 434.96C563.764 433.928 563.956 433.022 564.34 432.242C564.736 431.462 565.27 430.862 565.942 430.442C566.614 430.022 567.364 429.812 568.192 429.812C568.852 429.812 569.452 429.95 569.992 430.226C570.544 430.502 570.976 430.874 571.288 431.342V426.68H574.366V440H571.288V438.56C571 439.04 570.586 439.424 570.046 439.712C569.518 440 568.9 440.144 568.192 440.144C567.364 440.144 566.614 439.934 565.942 439.514C565.27 439.082 564.736 438.476 564.34 437.696C563.956 436.904 563.764 435.992 563.764 434.96ZM571.288 434.978C571.288 434.21 571.072 433.604 570.64 433.16C570.22 432.716 569.704 432.494 569.092 432.494C568.48 432.494 567.958 432.716 567.526 433.16C567.106 433.592 566.896 434.192 566.896 434.96C566.896 435.728 567.106 436.34 567.526 436.796C567.958 437.24 568.48 437.462 569.092 437.462C569.704 437.462 570.22 437.24 570.64 436.796C571.072 436.352 571.288 435.746 571.288 434.978Z" fill="black"/>
<path d="M455 513H605V588H455V513Z" fill="#333333"/>
<path d="M500.584 559.168C499.352 559.168 498.248 558.968 497.272 558.568C496.296 558.168 495.512 557.576 494.92 556.792C494.344 556.008 494.04 555.064 494.008 553.96H498.376C498.44 554.584 498.656 555.064 499.024 555.4C499.392 555.72 499.872 555.88 500.464 555.88C501.072 555.88 501.552 555.744 501.904 555.472C502.256 555.184 502.432 554.792 502.432 554.296C502.432 553.88 502.288 553.536 502 553.264C501.728 552.992 501.384 552.768 500.968 552.592C500.568 552.416 499.992 552.216 499.24 551.992C498.152 551.656 497.264 551.32 496.576 550.984C495.888 550.648 495.296 550.152 494.8 549.496C494.304 548.84 494.056 547.984 494.056 546.928C494.056 545.36 494.624 544.136 495.76 543.256C496.896 542.36 498.376 541.912 500.2 541.912C502.056 541.912 503.552 542.36 504.688 543.256C505.824 544.136 506.432 545.368 506.512 546.952H502.072C502.04 546.408 501.84 545.984 501.472 545.68C501.104 545.36 500.632 545.2 500.056 545.2C499.56 545.2 499.16 545.336 498.856 545.608C498.552 545.864 498.4 546.24 498.4 546.736C498.4 547.28 498.656 547.704 499.168 548.008C499.68 548.312 500.48 548.64 501.568 548.992C502.656 549.36 503.536 549.712 504.208 550.048C504.896 550.384 505.488 550.872 505.984 551.512C506.48 552.152 506.728 552.976 506.728 553.984C506.728 554.944 506.48 555.816 505.984 556.6C505.504 557.384 504.8 558.008 503.872 558.472C502.944 558.936 501.848 559.168 500.584 559.168ZM508.438 552.28C508.438 550.904 508.694 549.696 509.206 548.656C509.734 547.616 510.446 546.816 511.342 546.256C512.238 545.696 513.238 545.416 514.342 545.416C515.286 545.416 516.11 545.608 516.814 545.992C517.534 546.376 518.086 546.88 518.47 547.504V545.608H522.574V559H518.47V557.104C518.07 557.728 517.51 558.232 516.79 558.616C516.086 559 515.262 559.192 514.318 559.192C513.23 559.192 512.238 558.912 511.342 558.352C510.446 557.776 509.734 556.968 509.206 555.928C508.694 554.872 508.438 553.656 508.438 552.28ZM518.47 552.304C518.47 551.28 518.182 550.472 517.606 549.88C517.046 549.288 516.358 548.992 515.542 548.992C514.726 548.992 514.03 549.288 513.454 549.88C512.894 550.456 512.614 551.256 512.614 552.28C512.614 553.304 512.894 554.12 513.454 554.728C514.03 555.32 514.726 555.616 515.542 555.616C516.358 555.616 517.046 555.32 517.606 554.728C518.182 554.136 518.47 553.328 518.47 552.304ZM531.567 555.16L534.471 545.608H538.839L534.087 559H529.023L524.271 545.608H528.663L531.567 555.16ZM553.19 552.088C553.19 552.472 553.166 552.872 553.118 553.288H543.83C543.894 554.12 544.158 554.76 544.622 555.208C545.102 555.64 545.686 555.856 546.374 555.856C547.398 555.856 548.11 555.424 548.51 554.56H552.878C552.654 555.44 552.246 556.232 551.654 556.936C551.078 557.64 550.35 558.192 549.47 558.592C548.59 558.992 547.606 559.192 546.518 559.192C545.206 559.192 544.038 558.912 543.014 558.352C541.99 557.792 541.19 556.992 540.614 555.952C540.038 554.912 539.75 553.696 539.75 552.304C539.75 550.912 540.03 549.696 540.59 548.656C541.166 547.616 541.966 546.816 542.99 546.256C544.014 545.696 545.19 545.416 546.518 545.416C547.814 545.416 548.966 545.688 549.974 546.232C550.982 546.776 551.766 547.552 552.326 548.56C552.902 549.568 553.19 550.744 553.19 552.088ZM548.99 551.008C548.99 550.304 548.75 549.744 548.27 549.328C547.79 548.912 547.19 548.704 546.47 548.704C545.782 548.704 545.198 548.904 544.718 549.304C544.254 549.704 543.966 550.272 543.854 551.008H548.99Z" fill="white"/>
</g>
<defs>
<clipPath id="clip0_3_71">
<rect width="1440" height="900" fill="white"/>
</clipPath>
<clipPath id="clip1_3_71">
<rect width="24" height="24" fill="white" transform="translate(63 845)"/>
</clipPath>
<clipPath id="clip2_3_71">
<rect width="38" height="38" fill="white" transform="translate(44 64)"/>
</clipPath>
<clipPath id="clip3_3_71">
<rect width="24" height="24" fill="white" transform="translate(67 257)"/>
</clipPath>
<clipPath id="clip4_3_71">
<rect width="24" height="24" fill="white" transform="translate(67 325)"/>
</clipPath>
</defs>
</svg>
